<?xml version="1.0" encoding="UTF-8"?>
<svg version="1.1" xmlns="http://www.w3.org/2000/svg" width="616" height="616">
<path d="M0 0 C1.08796875 0.51304688 2.1759375 1.02609375 3.296875 1.5546875 C10.68064238 5.09027978 17.46427794 9.04225193 24 14 C24.7115625 14.51949219 25.423125 15.03898437 26.15625 15.57421875 C33.22729118 20.86468978 39.59817145 26.93430041 46 33 C46.68320312 33.64066406 47.36640625 34.28132813 48.0703125 34.94140625 C53.19036556 39.88285281 57.56920354 45.4439219 62 51 C67.57938261 46.64535991 72.01705586 41.63716688 76.49609375 36.17578125 C80.28644634 31.60475983 84.45742087 27.81361795 89 24 C89.886875 23.22527344 90.77375 22.45054688 91.6875 21.65234375 C105.30288541 9.93804274 120.99353514 -0.03601768 138 -6 C139.37091797 -6.48919922 139.37091797 -6.48919922 140.76953125 -6.98828125 C144.15515546 -8.11392524 147.55285718 -9.07887242 151 -10 C151.68271973 -10.18626953 152.36543945 -10.37253906 153.06884766 -10.56445312 C176.63403732 -16.73417219 204.55536855 -16.59945281 228 -10 C228.77537109 -9.78569336 229.55074219 -9.57138672 230.34960938 -9.35058594 C241.53838939 -6.16108724 251.80621481 -1.56528566 262 4 C263.06992187 4.5775 264.13984375 5.155 265.2421875 5.75 C272.63874307 9.89975585 279.34147485 14.77175311 286 20 C286.93972656 20.70769531 287.87945312 21.41539063 288.84765625 22.14453125 C289.55792969 22.75683594 290.26820313 23.36914062 291 24 C291 24.66 291 25.32 291 26 C292.32 26.66 293.64 27.32 295 28 C295 28.66 295 29.32 295 30 C296.32 30.66 297.64 31.32 299 32 C299 32.66 299 33.32 299 34 C299.60360352 34.26321045 300.20720703 34.5264209 300.82910156 34.79760742 C303.12754861 36.07064518 304.17604573 37.15108743 305.734375 39.23828125 C306.22196289 39.88659912 306.70955078 40.53491699 307.21191406 41.20288086 C307.71948242 41.89905518 308.22705078 42.59522949 308.75 43.3125 C309.28077148 44.03381104 309.81154297 44.75512207 310.35839844 45.49829102 C335.50733142 80.05329096 345.60781958 120.19281286 339.7578125 162.58984375 C337.15864913 178.86939237 331.71398617 194.45831544 324 209 C322.68 209 321.36 209 320 209 C317.89453125 206.69921875 317.89453125 206.69921875 315.8125 203.6875 C314.77029297 202.20830078 314.77029297 202.20830078 313.70703125 200.69921875 C312 198 312 198 311 195 C310.01 194.67 309.02 194.34 308 194 C305.9921875 191.63671875 305.9921875 191.63671875 303.875 188.6875 C302.81925781 187.23923828 302.81925781 187.23923828 301.7421875 185.76171875 C300 183 300 183 299.4453125 180.70703125 C299.22488281 179.86205078 299.22488281 179.86205078 299 179 C298.01 178.67 297.02 178.34 296 178 C295.195625 176.6696875 295.195625 176.6696875 294.375 175.3125 C291.5659068 170.91797162 287.71889879 168.14227699 283 166 C276.94287705 164.87965997 272.26301564 165.7419427 267 169 C266.2575 169.309375 265.515 169.61875 264.75 169.9375 C262.49590745 171.30605619 262.16543793 172.64432758 261 175 C259.90362439 176.58271658 258.77439119 178.14285404 257.625 179.6875 C254.61831553 183.76877566 251.66711648 187.88045604 248.75927734 192.03271484 C242.83648667 200.48864342 236.73187234 208.78606573 230.5 217.01611328 C227.48949056 220.99778641 224.50073513 224.99582573 221.50878906 228.99145508 C218.96856491 232.38188178 216.42102877 235.76635244 213.859375 239.140625 C212.82233233 240.50997433 211.78586671 241.87976088 210.75 243.25 C210.25193848 243.90871094 209.75387695 244.56742187 209.24072266 245.24609375 C205.42664329 250.33322523 201.91478351 255.5571367 198.5234375 260.9375 C198.02070313 261.618125 197.51796875 262.29875 197 263 C196.34 263 195.68 263 195 263 C194.67 264.32 194.34 265.64 194 267 C193.34 267 192.68 267 192 267 C191.73517822 267.57186035 191.47035645 268.1437207 191.19750977 268.73291016 C189.93411807 271.12472572 188.4900337 273.13120212 186.83984375 275.2734375 C186.2152124 276.09134766 185.59058105 276.90925781 184.94702148 277.75195312 C184.28387939 278.61755859 183.6207373 279.48316406 182.9375 280.375 C171.86941024 294.99716026 162.55934763 309.58651107 156.17578125 326.89453125 C155.37157348 329.01860161 154.49622129 331.11671376 153.56225586 333.18701172 C147.30430046 347.79018317 147.46583539 363.35576293 147.81103516 378.94360352 C148.10240597 394.25691003 148.10240597 394.25691003 145.34570312 398.61572266 C143.31741201 400.38071683 141.30167326 401.62331485 139 403 C137.31318311 404.64626983 135.64896302 406.31581577 134 408 C133.25558151 408.7466391 132.51116302 409.4932782 131.7441864 410.26254272 C130.97999893 411.0297464 130.21581146 411.79695007 129.4284668 412.58740234 C125.08833771 416.94354611 120.74599466 421.29747097 116.40202618 425.649786 C113.78499265 428.27203316 111.16890294 430.8952078 108.55493164 433.52050781 C106.00969546 436.0766965 103.46194555 438.63035578 100.91251564 441.1823616 C99.48632012 442.61126567 98.06266721 444.04270611 96.63908386 445.47421265 C74.93919367 467.17595652 74.93919367 467.17595652 63 469 C42.97344249 468.1655601 25.93753098 444.10036497 13.015625 431.18359375 C12.06844096 430.2378365 11.12117204 429.29216425 10.1738205 428.34657478 C5.23056562 423.41250408 0.28983061 418.47592684 -4.6484375 413.53686523 C-9.24520831 408.93948915 -13.84758125 404.347773 -18.45249343 399.75855297 C-22.42228947 395.80180222 -26.38825159 391.84123661 -30.35120988 387.87763745 C-32.71181014 385.51678216 -35.0743786 383.15798867 -37.43993378 380.8020916 C-40.06332818 378.18842392 -42.68039558 375.56858284 -45.29589844 372.94702148 C-46.08120941 372.16733002 -46.86652039 371.38763855 -47.67562866 370.58432007 C-48.38190399 369.87385025 -49.08817932 369.16338043 -49.81585693 368.43138123 C-50.43446468 367.81331824 -51.05307243 367.19525526 -51.69042587 366.5584631 C-53 365 -53 365 -53 363 C-54.32 362.34 -55.64 361.68 -57 361 C-57 360.34 -57 359.68 -57 359 C-58.32 358.34 -59.64 357.68 -61 357 C-61 356.34 -61 355.68 -61 355 C-62.32 354.34 -63.64 353.68 -65 353 C-65 352.34 -65 351.68 -65 351 C-66.32 350.34 -67.64 349.68 -69 349 C-69 348.34 -69 347.68 -69 347 C-70.32 346.34 -71.64 345.68 -73 345 C-73 344.34 -73 343.68 -73 343 C-74.32 342.34 -75.64 341.68 -77 341 C-77 340.34 -77 339.68 -77 339 C-78.32 338.34 -79.64 337.68 -81 337 C-81 336.34 -81 335.68 -81 335 C-82.32 334.34 -83.64 333.68 -85 333 C-85 332.34 -85 331.68 -85 331 C-86.32 330.34 -87.64 329.68 -89 329 C-89 328.34 -89 327.68 -89 327 C-90.32 326.34 -91.64 325.68 -93 325 C-93 324.34 -93 323.68 -93 323 C-94.32 322.34 -95.64 321.68 -97 321 C-97 320.34 -97 319.68 -97 319 C-98.32 318.34 -99.64 317.68 -101 317 C-101 316.34 -101 315.68 -101 315 C-102.32 314.34 -103.64 313.68 -105 313 C-105 312.34 -105 311.68 -105 311 C-106.32 310.34 -107.64 309.68 -109 309 C-109 308.34 -109 307.68 -109 307 C-110.32 306.34 -111.64 305.68 -113 305 C-113 304.34 -113 303.68 -113 303 C-114.32 302.34 -115.64 301.68 -117 301 C-117 300.34 -117 299.68 -117 299 C-117.84256348 298.64421875 -117.84256348 298.64421875 -118.70214844 298.28125 C-121.52582658 296.70680643 -123.47614842 294.78315455 -125.765625 292.5 C-126.65507813 291.613125 -127.54453125 290.72625 -128.4609375 289.8125 C-129.38132812 288.884375 -130.30171875 287.95625 -131.25 287 C-132.18585938 286.071875 -133.12171875 285.14375 -134.0859375 284.1875 C-134.97023438 283.300625 -135.85453125 282.41375 -136.765625 281.5 C-137.98427246 280.27796875 -137.98427246 280.27796875 -139.22753906 279.03125 C-141 277 -141 277 -141 275 C-142.32 274.34 -143.64 273.68 -145 273 C-145 272.34 -145 271.68 -145 271 C-146.32 270.34 -147.64 269.68 -149 269 C-149 268.34 -149 267.68 -149 267 C-150.32 266.34 -151.64 265.68 -153 265 C-153 264.34 -153 263.68 -153 263 C-154.32 262.34 -155.64 261.68 -157 261 C-157 260.34 -157 259.68 -157 259 C-158.32 258.34 -159.64 257.68 -161 257 C-161 256.34 -161 255.68 -161 255 C-161.53109375 254.79375 -162.0621875 254.5875 -162.609375 254.375 C-166.00773436 252.42038808 -168.51055928 249.77876283 -171.25 247 C-171.80429688 246.4534375 -172.35859375 245.906875 -172.9296875 245.34375 C-177 241.2533867 -177 241.2533867 -177 239 C-177.99 238.67 -178.98 238.34 -180 238 C-181.40698242 236.45629883 -181.40698242 236.45629883 -182.85546875 234.45703125 C-183.6597229 233.35161987 -183.6597229 233.35161987 -184.48022461 232.22387695 C-185.04362549 231.42812256 -185.60702637 230.63236816 -186.1875 229.8125 C-186.76830322 228.99676514 -187.34910645 228.18103027 -187.94750977 227.34057617 C-197.89986972 213.18638547 -204.85748451 198.48721632 -210 182 C-210.36544922 180.96166016 -210.36544922 180.96166016 -210.73828125 179.90234375 C-222.01000379 146.20278354 -217.80143721 105.85565387 -203 74 C-202.69006104 73.32976807 -202.38012207 72.65953613 -202.06079102 71.96899414 C-198.26844853 63.8862435 -194.26235614 56.41703073 -188.76171875 49.33203125 C-186.95345468 47.04235607 -186.95345468 47.04235607 -185.58203125 44.51171875 C-183.72050763 41.55626274 -181.5099671 39.42367526 -179 37 C-177.38715796 35.21613882 -175.78313043 33.42427309 -174.1875 31.625 C-155.84953671 11.45593318 -130.33129415 -3.19212267 -104 -10 C-102.99259766 -10.27505371 -102.99259766 -10.27505371 -101.96484375 -10.55566406 C-68.42948846 -19.41943641 -31.00352529 -15.07994597 0 0 Z " fill="#EE1F1B" transform="translate(223,75)"/>
<path d="M0 0 C4.70271089 3.44100797 7.65707876 7.13481465 10.90234375 11.94921875 C13.40147066 15.58388936 16.03120262 19.1043755 18.6875 22.625 C19.20207764 23.30731689 19.71665527 23.98963379 20.24682617 24.69262695 C21.30562259 26.09634548 22.36462503 27.49990863 23.42382812 28.90332031 C24.95268917 30.93706546 26.47045886 32.97855077 27.984375 35.0234375 C33.01480923 41.80557794 38.14125717 48.47326476 43.5 55 C49.38874691 62.1722591 54.98530632 69.52999712 60.50732422 76.98681641 C63.0348953 80.39577145 65.57985193 83.79165943 68.125 87.1875 C68.86991699 88.18366333 68.86991699 88.18366333 69.62988281 89.19995117 C72.39490099 92.89013096 75.19594076 96.54761556 78.03833008 100.1784668 C90.84775825 116.60565644 102.43693041 136.20340622 106 157 C106.14904785 157.85029785 106.2980957 158.7005957 106.45166016 159.57666016 C111.70518448 190.80023263 106.57908094 220.73427969 88 247 C72.82562331 267.91852334 52.49854583 281.52453666 28 289 C26.43451416 289.52146606 26.43451416 289.52146606 24.83740234 290.0534668 C20.36348514 291.15700268 16.27867446 291.34153965 11.69140625 291.37109375 C10.80702377 291.38012222 9.9226413 291.3891507 9.01145935 291.39845276 C7.14317171 291.4129063 5.27483401 291.42182977 3.40649414 291.42553711 C0.60146173 291.43733611 -2.20129654 291.4864855 -5.00585938 291.53710938 C-16.5876887 291.64214108 -26.22947902 290.27292092 -37 286 C-37.87003662 285.66476318 -38.74007324 285.32952637 -39.63647461 284.98413086 C-41.71388043 284.13742542 -43.73129738 283.22745803 -45.75 282.25 C-46.45261963 281.91347412 -47.15523926 281.57694824 -47.87915039 281.23022461 C-58.56791077 275.92546855 -67.36777882 268.14804211 -76 260 C-76.845625 259.23042969 -77.69125 258.46085937 -78.5625 257.66796875 C-87.55279157 249.18475156 -93.13345578 239.28731237 -98.25 228.1875 C-98.56727051 227.51396484 -98.88454102 226.84042969 -99.21142578 226.14648438 C-105.32706386 212.30193952 -106.72154729 198.64228761 -106.5625 183.6875 C-106.55824005 182.8290448 -106.5539801 181.9705896 -106.54959106 181.08612061 C-106.46214481 168.42691069 -105.70531606 156.87504504 -101 145 C-100.45082164 143.48603991 -99.90267481 141.97170532 -99.35546875 140.45703125 C-96.57494886 133.04389725 -93.43952519 126.39340188 -88.578125 120.078125 C-86.85786509 117.81283224 -85.45764807 115.440891 -84 113 C-82.9995675 111.61008615 -81.97945135 110.23406698 -80.9375 108.875 C-79.20933927 106.61475925 -77.58049731 104.37074597 -76 102 C-75.34 102 -74.68 102 -74 102 C-73.86658203 101.16662109 -73.86658203 101.16662109 -73.73046875 100.31640625 C-72.78455572 97.3167997 -71.24671484 95.42230464 -69.3125 92.9375 C-68.49362892 91.87328952 -67.67600783 90.80811649 -66.859375 89.7421875 C-66.40626953 89.15276367 -65.95316406 88.56333984 -65.48632812 87.95605469 C-62.62859366 84.19518601 -59.85393357 80.37266916 -57.0625 76.5625 C-52.28460563 70.05997993 -47.43710833 63.62469926 -42.5 57.2421875 C-35.3567208 47.99624951 -28.38291934 38.70970993 -21.98828125 28.92578125 C-18.63838721 23.99636939 -14.9415548 19.34155722 -11.27441406 14.64648438 C-8.36885709 10.89263835 -5.5501423 7.0725988 -2.71484375 3.265625 C-1 1 -1 1 0 0 Z " fill="#CF1110" transform="translate(500,267)"/>
<path d="M0 0 C0.639375 0.495 1.27875 0.99 1.9375 1.5 C1.6075 2.49 1.2775 3.48 0.9375 4.5 C0.31875 4.17 -0.3 3.84 -0.9375 3.5 C-6.54542978 1.70546247 -11.9709358 1.64788125 -17.4375 3.875 C-18.30375 4.41125 -19.17 4.9475 -20.0625 5.5 C-21.17625 5.9640625 -21.17625 5.9640625 -22.3125 6.4375 C-24.56659255 7.80605619 -24.89706207 9.14432758 -26.0625 11.5 C-27.15887561 13.08271658 -28.28810881 14.64285404 -29.4375 16.1875 C-32.44418447 20.26877566 -35.39538352 24.38045604 -38.30322266 28.53271484 C-44.22601333 36.98864342 -50.33062766 45.28606573 -56.5625 53.51611328 C-59.57300944 57.49778641 -62.56176487 61.49582573 -65.55371094 65.49145508 C-68.09393509 68.88188178 -70.64147123 72.26635244 -73.203125 75.640625 C-74.24016767 77.00997433 -75.27663329 78.37976088 -76.3125 79.75 C-77.05959229 80.73806641 -77.05959229 80.73806641 -77.82177734 81.74609375 C-81.63585671 86.83322523 -85.14771649 92.0571367 -88.5390625 97.4375 C-89.04179687 98.118125 -89.54453125 98.79875 -90.0625 99.5 C-90.7225 99.5 -91.3825 99.5 -92.0625 99.5 C-92.3925 100.82 -92.7225 102.14 -93.0625 103.5 C-93.7225 103.5 -94.3825 103.5 -95.0625 103.5 C-95.32732178 104.07186035 -95.59214355 104.6437207 -95.86499023 105.23291016 C-97.12838193 107.62472572 -98.5724663 109.63120212 -100.22265625 111.7734375 C-100.8472876 112.59134766 -101.47191895 113.40925781 -102.11547852 114.25195312 C-102.77862061 115.11755859 -103.4417627 115.98316406 -104.125 116.875 C-115.19308976 131.49716026 -124.50315237 146.08651107 -130.88671875 163.39453125 C-131.69092652 165.51860161 -132.56627871 167.61671376 -133.50024414 169.68701172 C-139.75819954 184.29018317 -139.59666461 199.85576293 -139.25146484 215.44360352 C-138.96009403 230.75691003 -138.96009403 230.75691003 -141.71679688 235.11572266 C-143.74508799 236.88071683 -145.76082674 238.12331485 -148.0625 239.5 C-149.74931689 241.14626983 -151.41353698 242.81581577 -153.0625 244.5 C-153.80691849 245.2466391 -154.55133698 245.9932782 -155.3183136 246.76254272 C-156.08250107 247.5297464 -156.84668854 248.29695007 -157.6340332 249.08740234 C-161.97416229 253.44354611 -166.31650534 257.79747097 -170.66047382 262.149786 C-173.27750735 264.77203316 -175.89359706 267.3952078 -178.50756836 270.02050781 C-181.05280454 272.5766965 -183.60055445 275.13035578 -186.14998436 277.6823616 C-187.57617988 279.11126567 -188.99983279 280.54270611 -190.42341614 281.97421265 C-212.12330633 303.67595652 -212.12330633 303.67595652 -224.0625 305.5 C-244.08905751 304.6655601 -261.12496902 280.60036497 -274.046875 267.68359375 C-274.99405904 266.7378365 -275.94132796 265.79216425 -276.8886795 264.84657478 C-281.83193438 259.91250408 -286.77266939 254.97592684 -291.7109375 250.03686523 C-296.30770831 245.43948915 -300.91008125 240.847773 -305.51499343 236.25855297 C-309.48478947 232.30180222 -313.45075159 228.34123661 -317.41370988 224.37763745 C-319.77431014 222.01678216 -322.1368786 219.65798867 -324.50243378 217.3020916 C-327.12582818 214.68842392 -329.74289558 212.06858284 -332.35839844 209.44702148 C-333.14370941 208.66733002 -333.92902039 207.88763855 -334.73812866 207.08432007 C-335.79754166 206.01861534 -335.79754166 206.01861534 -336.87835693 204.93138123 C-337.49696468 204.31331824 -338.11557243 203.69525526 -338.75292587 203.0584631 C-340.0625 201.5 -340.0625 201.5 -340.0625 199.5 C-341.3825 198.84 -342.7025 198.18 -344.0625 197.5 C-344.0625 196.84 -344.0625 196.18 -344.0625 195.5 C-344.7225 195.17 -345.3825 194.84 -346.0625 194.5 C-340.46684032 194.73271174 -337.75652182 198.31757023 -334.125 202.125 C-333.53009766 202.72957031 -332.93519531 203.33414063 -332.32226562 203.95703125 C-328.8184008 207.54897137 -325.5089051 211.25453493 -322.32202148 215.13037109 C-321.08761391 216.63562903 -321.08761391 216.63562903 -319.0625 217.5 C-319.0625 218.16 -319.0625 218.82 -319.0625 219.5 C-318.0725 219.83 -317.0825 220.16 -316.0625 220.5 C-316.0625 221.16 -316.0625 221.82 -316.0625 222.5 C-315.4025 222.5 -314.7425 222.5 -314.0625 222.5 C-314.0625 223.16 -314.0625 223.82 -314.0625 224.5 C-313.4025 224.5 -312.7425 224.5 -312.0625 224.5 C-310.51171875 226.109375 -310.51171875 226.109375 -308.75 228.25 C-306.07487765 231.41761349 -303.32324314 233.93092965 -300.0625 236.5 C-300.0625 237.16 -300.0625 237.82 -300.0625 238.5 C-299.4025 238.5 -298.7425 238.5 -298.0625 238.5 C-296.66015625 239.9609375 -296.66015625 239.9609375 -295.125 241.875 C-293.14263383 244.33901524 -291.75550345 245.70466437 -289.0625 247.5 C-289.0625 248.16 -289.0625 248.82 -289.0625 249.5 C-288.505625 249.70625 -287.94875 249.9125 -287.375 250.125 C-284.75755181 251.68132054 -283.22906151 253.61109453 -281.35546875 255.98046875 C-279.50919086 258.15026361 -277.3205764 259.77673117 -275.0625 261.5 C-273.25 263.125 -273.25 263.125 -272.0625 264.5 C-272.0625 265.16 -272.0625 265.82 -272.0625 266.5 C-271.4025 266.5 -270.7425 266.5 -270.0625 266.5 C-267.9375 268.375 -267.9375 268.375 -266.0625 270.5 C-266.0625 271.16 -266.0625 271.82 -266.0625 272.5 C-264.7425 273.16 -263.4225 273.82 -262.0625 274.5 C-262.0625 275.16 -262.0625 275.82 -262.0625 276.5 C-261.4025 276.5 -260.7425 276.5 -260.0625 276.5 C-258.90183409 277.89962654 -257.74523823 279.30282721 -256.609375 280.72265625 C-253.75489315 284.00242706 -250.3748082 286.69776208 -247.0625 289.5 C-246.42570312 290.06332031 -245.78890625 290.62664062 -245.1328125 291.20703125 C-244.53210938 291.73683594 -243.93140625 292.26664063 -243.3125 292.8125 C-242.78140625 293.28300781 -242.2503125 293.75351562 -241.703125 294.23828125 C-239.91761012 295.61142721 -238.10247245 296.55540406 -236.0625 297.5 C-236.0625 298.16 -236.0625 298.82 -236.0625 299.5 C-224.15416686 301.48472219 -218.01976669 299.6228247 -207.6875 293.5 C-204.93699133 291.40437435 -203.13034354 289.25712472 -201.0625 286.5 C-197.6585863 282.77696939 -197.6585863 282.77696939 -195.12890625 281.6015625 C-192.79988735 280.36000611 -191.65901712 279.10338807 -190 277.0625 C-186.88921388 273.39041986 -183.63387563 269.91819598 -180.25 266.5 C-179.76974365 266.00701416 -179.2894873 265.51402832 -178.79467773 265.00610352 C-177.58963407 263.79721328 -176.32987759 262.64337215 -175.0625 261.5 C-174.4025 261.5 -173.7425 261.5 -173.0625 261.5 C-173.0625 260.84 -173.0625 260.18 -173.0625 259.5 C-172.4025 259.5 -171.7425 259.5 -171.0625 259.5 C-170.815 258.88125 -170.5675 258.2625 -170.3125 257.625 C-168.85621361 255.14931313 -167.68437494 254.54874998 -165.0625 253.5 C-165.0625 252.84 -165.0625 252.18 -165.0625 251.5 C-163.6875 249.875 -163.6875 249.875 -162.0625 248.5 C-161.4025 248.5 -160.7425 248.5 -160.0625 248.5 C-160.0625 247.84 -160.0625 247.18 -160.0625 246.5 C-159.4025 246.5 -158.7425 246.5 -158.0625 246.5 C-157.8459375 245.95730469 -157.629375 245.41460937 -157.40625 244.85546875 C-155.60210874 241.69297694 -153.146537 239.33310456 -150.5625 236.8125 C-149.81419922 236.06516602 -149.81419922 236.06516602 -149.05078125 235.30273438 C-145.3441578 231.6408289 -145.3441578 231.6408289 -143.0625 230.5 C-143.07297363 229.60394043 -143.08344727 228.70788086 -143.09423828 227.78466797 C-143.12877839 224.38880731 -143.15361758 220.99313923 -143.17236328 217.59716797 C-143.1822839 216.14075738 -143.19582468 214.68436593 -143.21337891 213.22802734 C-143.46406342 191.86085929 -139.19298355 173.10673836 -130.6875 153.5625 C-130.24156494 152.53278076 -129.79562988 151.50306152 -129.33618164 150.44213867 C-126.16339874 143.36675873 -122.40239922 136.92026082 -118.0625 130.5 C-117.62824707 129.85732178 -117.19399414 129.21464355 -116.74658203 128.55249023 C-111.78603557 121.34798575 -106.50073775 114.40671918 -101.0480957 107.57055664 C-97.38917772 102.97154092 -93.9696002 98.2453795 -90.62109375 93.4140625 C-90.10675781 92.78242188 -89.59242188 92.15078125 -89.0625 91.5 C-88.4025 91.5 -87.7425 91.5 -87.0625 91.5 C-86.94495361 90.90864258 -86.82740723 90.31728516 -86.70629883 89.70800781 C-86.0313419 87.39313848 -85.22273884 86.07145268 -83.76171875 84.171875 C-83.28524902 83.54522949 -82.8087793 82.91858398 -82.31787109 82.27294922 C-81.5417749 81.27158936 -81.5417749 81.27158936 -80.75 80.25 C-79.65223021 78.80998238 -78.55457722 77.36987571 -77.45703125 75.9296875 C-76.89322754 75.19459961 -76.32942383 74.45951172 -75.74853516 73.70214844 C-73.12457917 70.27497163 -70.5294442 66.82641615 -67.9375 63.375 C-67.19947144 62.39611816 -67.19947144 62.39611816 -66.4465332 61.39746094 C-63.96522725 58.09342559 -61.52857831 54.7661127 -59.15625 51.3828125 C-58.69750488 50.72941895 -58.23875977 50.07602539 -57.76611328 49.40283203 C-56.8988585 48.16075489 -56.03756052 46.9144911 -55.18310547 45.66357422 C-54.19126467 44.24075249 -53.13292399 42.86468397 -52.0625 41.5 C-51.4025 41.5 -50.7425 41.5 -50.0625 41.5 C-49.93488281 40.66275391 -49.93488281 40.66275391 -49.8046875 39.80859375 C-48.83699724 36.79856774 -47.21867415 34.97684436 -45.1875 32.5625 C-43.176973 30.16247976 -41.2867892 27.87402593 -39.67578125 25.1875 C-37.40981395 21.4127167 -34.77038313 17.95286297 -32.125 14.4375 C-31.59970703 13.73044922 -31.07441406 13.02339844 -30.53320312 12.29492188 C-23.2760043 2.6216844 -23.2760043 2.6216844 -17.0625 0.5 C-15.94875 -0.056875 -15.94875 -0.056875 -14.8125 -0.625 C-9.68649431 -2.25600181 -4.85754923 -2.37920779 0 0 Z " fill="#CC0403" transform="translate(510.0625,238.5)"/>
<path d="M0 0 C0.81081628 2.3144653 1.17585618 3.53672037 0.29077148 5.8684082 C-0.09522217 6.50609131 -0.48121582 7.14377441 -0.87890625 7.80078125 C-1.30276611 8.52273682 -1.72662598 9.24469238 -2.16333008 9.98852539 C-2.62505615 10.75543701 -3.08678223 11.52234863 -3.5625 12.3125 C-17.8425098 37.05307109 -24.36272866 64.50243588 -23 93 C-22.96277832 93.83112305 -22.92555664 94.66224609 -22.88720703 95.51855469 C-21.79274223 116.59802685 -15.93035199 135.95810814 -7 155 C-6.31357422 156.48113281 -6.31357422 156.48113281 -5.61328125 157.9921875 C1.39608926 171.84253523 12.32263342 187.25810674 24.5 197 C26.63758368 198.71006694 28.5315711 200.50139726 30.45263672 202.44384766 C32.2826673 204.28427286 34.13534652 206.10060897 35.98828125 207.91796875 C37.42978738 209.34104467 38.87119148 210.76422394 40.3125 212.1875 C41.05306641 212.91130859 41.79363281 213.63511719 42.55664062 214.38085938 C43.25595703 215.07373047 43.95527344 215.76660156 44.67578125 216.48046875 C45.31427002 217.10848389 45.95275879 217.73649902 46.6105957 218.38354492 C48 220 48 220 48 222 C48.86625 222.3403125 48.86625 222.3403125 49.75 222.6875 C52.57914534 224.33783478 53.98274596 226.43258577 56 229 C56.9075 229.721875 57.815 230.44375 58.75 231.1875 C59.4925 231.785625 60.235 232.38375 61 233 C61 233.66 61 234.32 61 235 C61.66 235 62.32 235 63 235 C64.62109375 236.6796875 64.62109375 236.6796875 66.4375 238.875 C68.58400884 241.46193722 70.16776562 243.11184374 73 245 C73 245.99 73 246.98 73 248 C69.36120325 246.46347997 67.01785354 244.27579241 64.234375 241.5 C63.34492187 240.613125 62.45546875 239.72625 61.5390625 238.8125 C60.15847656 237.4203125 60.15847656 237.4203125 58.75 236 C57.81414062 235.071875 56.87828125 234.14375 55.9140625 233.1875 C55.02976562 232.300625 54.14546875 231.41375 53.234375 230.5 C52.42194336 229.6853125 51.60951172 228.870625 50.77246094 228.03125 C49 226 49 226 49 224 C47.02 223.01 47.02 223.01 45 222 C45 221.34 45 220.68 45 220 C43.02 219.01 43.02 219.01 41 218 C41 217.34 41 216.68 41 216 C39.02 215.01 39.02 215.01 37 214 C37 213.34 37 212.68 37 212 C35.68 211.34 34.36 210.68 33 210 C33 209.34 33 208.68 33 208 C31.68 207.34 30.36 206.68 29 206 C29 205.34 29 204.68 29 204 C28.46890625 203.79375 27.9378125 203.5875 27.390625 203.375 C23.99226564 201.42038808 21.48944072 198.77876283 18.75 196 C18.19570313 195.4534375 17.64140625 194.906875 17.0703125 194.34375 C13 190.2533867 13 190.2533867 13 188 C12.01 187.67 11.02 187.34 10 187 C8.59301758 185.45629883 8.59301758 185.45629883 7.14453125 183.45703125 C6.3402771 182.35161987 6.3402771 182.35161987 5.51977539 181.22387695 C4.95637451 180.42812256 4.39297363 179.63236816 3.8125 178.8125 C3.23169678 177.99676514 2.65089355 177.18103027 2.05249023 176.34057617 C-7.89986972 162.18638547 -14.85748451 147.48721632 -20 131 C-20.36544922 129.96166016 -20.36544922 129.96166016 -20.73828125 128.90234375 C-33.28547155 91.38946197 -26.23180229 49.48559353 -9.0625 14.875 C-8.74087891 14.21113281 -8.41925781 13.54726562 -8.08789062 12.86328125 C-5.78579067 8.22275629 -3.10014657 4.15150062 0 0 Z " fill="#D70403" transform="translate(33,126)"/>
<path d="M0 0 C0.99 0.66 1.98 1.32 3 2 C2.27296875 2.95777344 1.5459375 3.91554688 0.796875 4.90234375 C-4.58641396 12.02217754 -9.88383049 19.18537038 -15 26.5 C-22.71692202 37.51838735 -30.74547089 48.27071972 -39.21484375 58.72265625 C-41.02555352 61.03259891 -42.70892644 63.39650005 -44.375 65.8125 C-47.26049032 69.99079661 -50.2471742 74.07773458 -53.3125 78.125 C-53.74546387 78.70612549 -54.17842773 79.28725098 -54.62451172 79.88598633 C-55.70124395 81.29566946 -56.84541715 82.65333847 -58 84 C-58.66 84 -59.32 84 -60 84 C-60.10441406 84.56976563 -60.20882812 85.13953125 -60.31640625 85.7265625 C-61.11919697 88.39641507 -62.30060833 90.11801525 -63.9375 92.375 C-64.56527344 93.24898438 -65.19304687 94.12296875 -65.83984375 95.0234375 C-66.90912109 96.49683594 -66.90912109 96.49683594 -68 98 C-68.81485362 99.13726814 -69.62861176 100.27532181 -70.44140625 101.4140625 C-71.07030762 102.29505615 -71.07030762 102.29505615 -71.71191406 103.19384766 C-72.57503271 104.40411145 -73.43765811 105.61472715 -74.29980469 106.82568359 C-76.16359339 109.44109158 -78.0344847 112.04644031 -79.94921875 114.625 C-96.27508009 136.93089595 -104.26816745 167.14197367 -100.23828125 194.57421875 C-98.8101246 203.31845587 -97.22043463 211.88197863 -93.734375 220.07421875 C-93 222 -93 222 -93 225 C-93.66 225 -94.32 225 -95 225 C-102.17364547 210.65270905 -103.73025886 196.4614134 -103.5625 180.6875 C-103.55824005 179.8290448 -103.5539801 178.9705896 -103.54959106 178.08612061 C-103.46214481 165.42691069 -102.70531606 153.87504504 -98 142 C-97.45082164 140.48603991 -96.90267481 138.97170532 -96.35546875 137.45703125 C-93.57494886 130.04389725 -90.43952519 123.39340188 -85.578125 117.078125 C-83.85786509 114.81283224 -82.45764807 112.440891 -81 110 C-79.9995675 108.61008615 -78.97945135 107.23406698 -77.9375 105.875 C-76.20933927 103.61475925 -74.58049731 101.37074597 -73 99 C-72.34 99 -71.68 99 -71 99 C-70.86658203 98.16662109 -70.86658203 98.16662109 -70.73046875 97.31640625 C-69.78455572 94.3167997 -68.24671484 92.42230464 -66.3125 89.9375 C-65.49362892 88.87328952 -64.67600783 87.80811649 -63.859375 86.7421875 C-63.40626953 86.15276367 -62.95316406 85.56333984 -62.48632812 84.95605469 C-59.62859366 81.19518601 -56.85393357 77.37266916 -54.0625 73.5625 C-49.28460563 67.05997993 -44.43710833 60.62469926 -39.5 54.2421875 C-32.35919984 44.99945827 -25.38218197 35.71851478 -18.99609375 25.93359375 C-16.37248134 22.07775634 -13.53246355 18.41633352 -10.66210938 14.74267578 C-6.92603923 9.95018955 -3.42211564 5.01985838 0 0 Z " fill="#BB0201" transform="translate(497,270)"/>
<path d="M0 0 C2.85709863 2.73178728 5.21735058 5.52625828 7.5 8.75 C10.92243197 13.52355967 14.4077804 18.24271676 17.9375 22.9375 C18.45070801 23.62183105 18.96391602 24.30616211 19.49267578 25.01123047 C21.83443153 28.13134758 24.18313804 31.24529069 26.55859375 34.33984375 C38.70692508 50.25764045 49.48539055 69.06117559 53 89 C53.15049805 89.85319824 53.30099609 90.70639648 53.45605469 91.58544922 C58.70530946 122.80498613 53.57585206 152.73884444 35 179 C25.70471529 191.81394511 14.3996132 203.11597439 0 210 C0 209.01 0 208.02 0 207 C1.92611601 205.29476885 3.79524684 203.80449683 5.875 202.3125 C6.43058594 201.89677734 6.98617187 201.48105469 7.55859375 201.05273438 C11.71913485 198 11.71913485 198 14 198 C14 197.34 14 196.68 14 196 C19.47619048 191 19.47619048 191 22 191 C22 190.34 22 189.68 22 189 C23.6436814 187.31066078 25.3142876 185.64740076 27 184 C45.33525498 161.81615684 54.23032911 132.59531864 52 104 C50.21167926 90.41884361 46.86007775 77.394202 41 65 C40.6915918 64.33532715 40.38318359 63.6706543 40.06542969 62.98583984 C36.07659418 54.437483 31.76594488 46.50281762 26 39 C25.2265625 37.98550781 24.453125 36.97101563 23.65625 35.92578125 C21.96990961 33.72289232 20.27657653 31.52559374 18.578125 29.33203125 C15.9992978 26.00055547 13.42612179 22.66525686 10.875 19.3125 C10.12992188 18.33925781 9.38484375 17.36601562 8.6171875 16.36328125 C7 14 7 14 7 12 C6.34 12 5.68 12 5 12 C2.16741821 9.02149733 0.12535682 6.1783541 -0.3125 2.0625 C-0.209375 1.381875 -0.10625 0.70125 0 0 Z " fill="#B60101" transform="translate(553,335)"/>
<path d="M0 0 C3.60156104 2.05803488 6.88992126 4.24535883 10 7 C10 7.66 10 8.32 10 9 C11.32 9.66 12.64 10.32 14 11 C14 11.66 14 12.32 14 13 C15.32 13.66 16.64 14.32 18 15 C18 15.66 18 16.32 18 17 C18.60360352 17.26321045 19.20720703 17.5264209 19.82910156 17.79760742 C22.12754861 19.07064518 23.17604573 20.15108743 24.734375 22.23828125 C25.22196289 22.88659912 25.70955078 23.53491699 26.21191406 24.20288086 C26.71948242 24.89905518 27.22705078 25.59522949 27.75 26.3125 C28.28077148 27.03381104 28.81154297 27.75512207 29.35839844 28.49829102 C55.94455354 65.02805507 64.20690943 105.60951379 58 150 C56 148 56 148 55.76953125 145.71484375 C55.83662695 141.37802173 55.92684117 137.11534454 56.5 132.8125 C60.53055006 98.34227337 49.19913947 62.93639024 29.7265625 34.65234375 C28 32 28 32 28 30 C27.34 30 26.68 30 26 30 C24.10647598 28.43578451 22.99731114 26.99501664 21.828125 24.828125 C19.38540203 21.04921169 16.3793934 18.08928584 13.1875 14.9375 C12.58357422 14.32583984 11.97964844 13.71417969 11.35742188 13.08398438 C8.56629956 10.30487981 5.93348585 7.85198972 2.55078125 5.81640625 C1.70902344 5.21699219 0.86726563 4.61757812 0 4 C0 2.68 0 1.36 0 0 Z " fill="#D50604" transform="translate(504,92)"/>
<path d="M0 0 C20.59092387 7.52145863 38.83246481 28.10831345 52 45 C57.57938261 40.64535991 62.01705586 35.63716688 66.49609375 30.17578125 C70.27989544 25.61265998 74.46767642 21.81028354 79 18 C80.3340927 16.85505088 81.66747788 15.70927661 83 14.5625 C83.99 13.716875 84.98 12.87125 86 12 C86.99 12.495 86.99 12.495 88 13 C86.71520959 14.50589388 85.42195918 16.00457375 84.125 17.5 C83.40570313 18.3353125 82.68640625 19.170625 81.9453125 20.03125 C81.30335938 20.6809375 80.66140625 21.330625 80 22 C79.34 22 78.68 22 78 22 C78 22.66 78 23.32 78 24 C77.34 24 76.68 24 76 24 C76 24.66 76 25.32 76 26 C74.38023965 27.34405646 72.75984755 28.68735709 71.13671875 30.02734375 C66.93449474 33.90691071 63.5446088 38.52783002 60 43 C58.98385649 44.23304653 57.96409794 45.46314382 56.9375 46.6875 C56.298125 47.450625 55.65875 48.21375 55 49 C50.8987163 48.14159178 48.76499656 47.09720834 46.4375 43.6875 C46.03402344 43.06359375 45.63054687 42.4396875 45.21484375 41.796875 C43.46255088 39.20505918 41.23484458 37.17897347 39 35 C38.236875 34.05125 37.47375 33.1025 36.6875 32.125 C33.54486849 28.28071177 29.79176779 25.18330407 26 22 C25.41347656 21.49855469 24.82695312 20.99710938 24.22265625 20.48046875 C21.28979918 17.97958968 21.28979918 17.97958968 18 16 C18 15.34 18 14.68 18 14 C17.47792969 13.74992187 16.95585937 13.49984375 16.41796875 13.2421875 C13.31461107 11.64789389 10.30843712 9.90995478 7.3125 8.125 C6.71888672 7.78597656 6.12527344 7.44695312 5.51367188 7.09765625 C1.20292757 4.51219273 1.20292757 4.51219273 0.10546875 1.7421875 C0.07066406 1.16726562 0.03585938 0.59234375 0 0 Z " fill="#CD0604" transform="translate(233,81)"/>
<path d="M0 0 C0.33 0.99 0.66 1.98 1 3 C-0.2578125 5.27734375 -0.2578125 5.27734375 -2.125 7.9375 C-5.9514605 13.70381622 -8.52858681 19.55882556 -11 26 C-11.70615089 27.77170475 -12.41435548 29.54259289 -13.125 31.3125 C-13.41632813 32.05113281 -13.70765625 32.78976562 -14.0078125 33.55078125 C-14.7700931 35.43247391 -15.58761983 37.29185961 -16.42822266 39.13989258 C-22.04652839 52.28464611 -22.62976478 66.54349839 -22.75 80.625 C-22.77826668 82.32554961 -22.80820824 84.02607222 -22.83984375 85.7265625 C-22.91241644 89.81765728 -22.96275143 93.90843751 -23 98 C-23.99 98.495 -23.99 98.495 -25 99 C-27.16235936 84.36515187 -27.11872826 68.46559067 -24 54 C-23.86529297 53.36449219 -23.73058594 52.72898437 -23.59179688 52.07421875 C-19.71360145 34.51321264 -12.38421946 15.74462566 -2 1 C-1.34 0.67 -0.68 0.34 0 0 Z " fill="#DB0402" transform="translate(393,369)"/>
<path d="M0 0 C-3.53854164 2.27477677 -5.70947373 1.99082706 -9.75 1.125 C-10.73484375 0.92132813 -11.7196875 0.71765625 -12.734375 0.5078125 C-13.48203125 0.34023437 -14.2296875 0.17265625 -15 0 C-15 -0.66 -15 -1.32 -15 -2 C-24.605108 -2.99152477 -34.16680735 -3.23527753 -43.8125 -3.25 C-44.57580627 -3.25266876 -45.33911255 -3.25533752 -46.12554932 -3.25808716 C-57.83476444 -3.27751532 -69.1400635 -2.46732849 -80.7109375 -0.55859375 C-84.05765146 -0.03133249 -86.70700685 0.02313162 -90 -1 C-67.18874218 -14.46834903 -23.35372344 -9.21996548 0 0 Z " fill="#D60605" transform="translate(205,68)"/>
<path d="M0 0 C-0.33 0.66 -0.66 1.32 -1 2 C-5.075242 1.4566344 -9.09031015 0.79157897 -13.125 0 C-23.96035153 -1.9772893 -34.88810561 -2.16203448 -45.875 -2.125 C-47.04546875 -2.12886719 -48.2159375 -2.13273437 -49.421875 -2.13671875 C-55.07088542 -2.13031398 -60.40940713 -1.85645995 -66 -1 C-68.98071498 -0.88467063 -71.95516775 -0.90427779 -74.9375 -0.9375 C-75.71673828 -0.94201172 -76.49597656 -0.94652344 -77.29882812 -0.95117188 C-79.19925268 -0.96283092 -81.09963706 -0.98076123 -83 -1 C-83 -1.33 -83 -1.66 -83 -2 C-56.64452247 -8.8567096 -25.84993248 -9.12350558 0 0 Z " fill="#AC0000" transform="translate(457,67)"/>
<path d="M0 0 C0 1.32 0 2.64 0 4 C-1.95649397 4.83764268 -3.91525556 5.66999059 -5.875 6.5 C-7.51082031 7.19609375 -7.51082031 7.19609375 -9.1796875 7.90625 C-12 9 -12 9 -14 9 C-14 9.66 -14 10.32 -14 11 C-15.65 11.33 -17.3 11.66 -19 12 C-19.33 12.99 -19.66 13.98 -20 15 C-21.890625 16.53515625 -21.890625 16.53515625 -24.25 18.0625 C-25.01828125 18.56910156 -25.7865625 19.07570313 -26.578125 19.59765625 C-29 21 -29 21 -31.734375 21.99609375 C-32.48203125 22.32738281 -33.2296875 22.65867187 -34 23 C-34.33 23.99 -34.66 24.98 -35 26 C-36.2065625 26.4640625 -36.2065625 26.4640625 -37.4375 26.9375 C-40.57579085 28.23874255 -40.59446326 29.03394338 -42 32 C-42.95880034 33.28187437 -43.95993957 34.5331293 -45 35.75 C-45.515625 36.36359375 -46.03125 36.9771875 -46.5625 37.609375 C-48 39 -48 39 -50 39 C-50.24492188 39.55171875 -50.48984375 40.1034375 -50.7421875 40.671875 C-52.25738114 43.47639491 -54.11084126 45.78103123 -56.125 48.25 C-56.84945312 49.14203125 -57.57390625 50.0340625 -58.3203125 50.953125 C-58.87460937 51.62859375 -59.42890625 52.3040625 -60 53 C-60.66 52.01 -61.32 51.02 -62 50 C-58.49743437 45.51671599 -54.76880502 41.25845292 -51 37 C-50.28328125 36.17757812 -49.5665625 35.35515625 -48.828125 34.5078125 C-39.22517746 23.61343408 -15.90208847 0 0 0 Z " fill="#CE0704" transform="translate(96,74)"/>
<path d="M0 0 C4.70271089 3.44100797 7.65707876 7.13481465 10.90234375 11.94921875 C13.40147066 15.58388936 16.03120262 19.1043755 18.6875 22.625 C19.20207764 23.30731689 19.71665527 23.98963379 20.24682617 24.69262695 C21.30562259 26.09634548 22.36462503 27.49990863 23.42382812 28.90332031 C24.95268917 30.93706546 26.47045886 32.97855077 27.984375 35.0234375 C33.70923116 42.74074029 39.57883545 50.29682706 45.72436523 57.68554688 C48.45801264 60.99346121 50.9151544 64.22707873 53 68 C52.34 68.66 51.68 69.32 51 70 C50.52691406 69.40574219 50.05382812 68.81148438 49.56640625 68.19921875 C45.30170573 62.84443978 45.30170573 62.84443978 40.95703125 57.5546875 C34.12745829 49.37970148 27.89491794 40.79126971 21.61132812 32.19433594 C19.51521809 29.33981518 17.38576827 26.51247009 15.25 23.6875 C12.89437309 20.56872056 10.58392186 17.42729854 8.3359375 14.23046875 C7.65869629 13.26911011 7.65869629 13.26911011 6.96777344 12.28833008 C6.09372915 11.04289642 5.22433109 9.79418479 4.36035156 8.54174805 C2.38733253 5.72838397 0.89654982 3.93103321 -2 2 C-1.34 1.34 -0.68 0.68 0 0 Z " fill="#B20201" transform="translate(500,267)"/>
<path d="M0 0 C1.99035585 2.78366495 2.00283277 3.98069766 1.49609375 7.43359375 C1.16040545 8.77265255 0.80645973 10.10722415 0.4375 11.4375 C0.24986084 12.14471191 0.06222168 12.85192383 -0.13110352 13.58056641 C-2.95577711 23.89021968 -6.99472416 33.56452257 -12 43 C-13.32 43 -14.64 43 -16 43 C-18.10546875 40.69921875 -18.10546875 40.69921875 -20.1875 37.6875 C-20.88230469 36.70136719 -21.57710937 35.71523438 -22.29296875 34.69921875 C-24 32 -24 32 -25 29 C-25.99 28.67 -26.98 28.34 -28 28 C-30.04296875 25.6015625 -30.04296875 25.6015625 -32.1875 22.625 C-32.90292969 21.64789063 -33.61835937 20.67078125 -34.35546875 19.6640625 C-36 17 -36 17 -36 14 C-31.83579487 15.52814867 -29.77491656 18.54368076 -27.25 22 C-26.37326288 23.17122246 -25.49564652 24.34178722 -24.6171875 25.51171875 C-24.18116211 26.09614746 -23.74513672 26.68057617 -23.29589844 27.28271484 C-20.29258529 31.26261399 -17.13355095 35.12244952 -14 39 C-9.52613409 29.4205119 -5.84984667 19.94038732 -3.04296875 9.7421875 C-2.12610779 6.45247664 -1.11129088 3.22827487 0 0 Z " fill="#D20403" transform="translate(559,241)"/>
<path d="M0 0 C0.66 0 1.32 0 2 0 C2.40089844 0.88300781 2.80179687 1.76601563 3.21484375 2.67578125 C7.15908732 11.10228067 11.67940283 18.08478219 18 25 C18.63679688 25.70640625 19.27359375 26.4128125 19.9296875 27.140625 C26.34233409 33.89918199 33.92451745 39.97698446 42.1875 44.3125 C45 46 45 46 45.9375 48.25 C45.958125 48.8275 45.97875 49.405 46 50 C35.87818873 46.3837694 27.69095334 38.26570316 20 31 C19.15308594 30.22914063 18.30617188 29.45828125 17.43359375 28.6640625 C8.98118473 20.68911781 3.41023347 11.72212725 -1 1 C-0.67 0.67 -0.34 0.34 0 0 Z " fill="#AA0100" transform="translate(404,496)"/>
<path d="M0 0 C-7.6692227 4.03559755 -15.24979238 5.4606799 -23.84765625 5.3984375 C-25.19276527 5.40274277 -25.19276527 5.40274277 -26.56504822 5.40713501 C-28.44482054 5.40916035 -30.32461469 5.4037387 -32.2043457 5.39111328 C-35.05924121 5.37501837 -37.91272543 5.39102415 -40.76757812 5.41015625 C-42.60677391 5.40817392 -44.44596883 5.40433044 -46.28515625 5.3984375 C-47.54647118 5.40754654 -47.54647118 5.40754654 -48.83326721 5.4168396 C-54.69350946 5.34824664 -59.55540554 4.14892003 -65 2 C-65 1.67 -65 1.34 -65 1 C-64.18152588 1.06928711 -63.36305176 1.13857422 -62.51977539 1.20996094 C-53.85542677 1.89227915 -45.2475664 2.2161631 -36.55883789 2.24023438 C-34.43532111 2.25001003 -32.312748 2.28122117 -30.18945312 2.3125 C-22.39595494 2.3698292 -15.30223568 1.72151316 -7.75415039 -0.45019531 C-4.80258984 -1.03940853 -2.87824584 -0.79259379 0 0 Z " fill="#960100" transform="translate(535,553)"/>
<path d="M0 0 C2.29070413 3.4360562 2.67623968 6.25686416 3.125 10.25 C3.2084668 10.98871338 3.29193359 11.72742676 3.37792969 12.48852539 C5.0121673 28.70916749 4.25302526 44.88684617 2 61 C0 59 0 59 -0.23046875 56.71484375 C-0.16337305 52.37802173 -0.07315883 48.11534454 0.5 43.8125 C2.23448907 29.32441484 0.23225585 15.31176798 -2 1 C-1.34 0.67 -0.68 0.34 0 0 Z " fill="#E30A09" transform="translate(560,181)"/>
<path d="M0 0 C3.83357613 0.51986127 5.79449187 1.29719294 8.50512695 4.05102539 C9.14541336 4.69161392 9.78569977 5.33220245 10.44538879 5.99220276 C11.1195433 6.68700241 11.79369781 7.38180206 12.48828125 8.09765625 C13.19147995 8.80651474 13.89467865 9.51537323 14.6191864 10.24571228 C16.85986096 12.50875169 19.08621772 14.78530931 21.3125 17.0625 C22.83045671 18.60052137 24.34932658 20.13764207 25.86914062 21.67382812 C29.59008082 25.43883717 33.29936497 29.2150369 37 33 C36.67 33.99 36.34 34.98 36 36 C35.01 35.505 35.01 35.505 34 35 C34 34.34 34 33.68 34 33 C32.68 32.34 31.36 31.68 30 31 C30 30.34 30 29.68 30 29 C28.68 28.34 27.36 27.68 26 27 C26 26.34 26 25.68 26 25 C24.68 24.34 23.36 23.68 22 23 C22 22.34 22 21.68 22 21 C20.68 20.34 19.36 19.68 18 19 C18 18.34 18 17.68 18 17 C16.68 16.34 15.36 15.68 14 15 C14 14.34 14 13.68 14 13 C12.68 12.34 11.36 11.68 10 11 C10 10.34 10 9.68 10 9 C8.68 8.34 7.36 7.68 6 7 C6 6.34 6 5.68 6 5 C4.68 4.34 3.36 3.68 2 3 C2 2.34 2 1.68 2 1 C1.34 0.67 0.68 0.34 0 0 Z " fill="#C80302" transform="translate(128,397)"/>
<path d="M0 0 C0.66 0.66 1.32 1.32 2 2 C-8.16406936 14.91376928 -18.93633089 26.79850907 -34 34 C-34 33.01 -34 32.02 -34 31 C-32.07388399 29.29476885 -30.20475316 27.80449683 -28.125 26.3125 C-27.56941406 25.89677734 -27.01382813 25.48105469 -26.44140625 25.05273438 C-22.28086515 22 -22.28086515 22 -20 22 C-20 21.34 -20 20.68 -20 20 C-14.52380952 15 -14.52380952 15 -12 15 C-12 14.34 -12 13.68 -12 13 C-10.3563186 11.31066078 -8.6857124 9.64740076 -7 8 C-5.65705519 6.34106818 -4.32255312 4.67523395 -3 3 C-2.01769502 1.9826127 -1.02530403 0.97403883 0 0 Z " fill="#A70101" transform="translate(587,511)"/>
<path d="M0 0 C0 0.33 0 0.66 0 1 C-9.9 1 -19.8 1 -30 1 C-30 1.66 -30 2.32 -30 3 C-54.73502994 7.87949102 -54.73502994 7.87949102 -61 6 C-44.18525493 -3.9278548 -18.7444574 -0.40042387 0 0 Z " fill="#A60202" transform="translate(176,61)"/>
<path d="M0 0 C2.05076826 0.07846537 4.10155089 0.15655542 6.15234375 0.234375 C12.10260548 0.46751237 18.05146564 0.72653761 24 1 C24 1.33 24 1.66 24 2 C22.82812134 2.03758423 22.82812134 2.03758423 21.63256836 2.07592773 C18.06740383 2.19250203 14.50246387 2.31494865 10.9375 2.4375 C9.09381836 2.49647461 9.09381836 2.49647461 7.21289062 2.55664062 C1.39100329 2.76064207 -4.23396627 3.15205386 -10 4 C-12.98079387 4.11309897 -15.95516121 4.09572228 -18.9375 4.0625 C-19.71673828 4.05798828 -20.49597656 4.05347656 -21.29882812 4.04882812 C-23.19925268 4.03716908 -25.09963706 4.01923877 -27 4 C-27 3.67 -27 3.34 -27 3 C-17.82943076 0.69017147 -9.47469435 -0.40751374 0 0 Z " fill="#EA0A08" transform="translate(401,62)"/>
<path d="M0 0 C7.72207284 1.90957984 14.12371779 5.06147216 21 9 C22.98616948 10.03326736 24.98665944 11.02053702 27 12 C26.67 12.66 26.34 13.32 26 14 C16.88411104 11.34810503 8.5225941 7.1194169 0 3 C0 2.01 0 1.02 0 0 Z " fill="#C80504" transform="translate(464,70)"/>
<path d="M0 0 C-0.33 0.99 -0.66 1.98 -1 3 C-1.66 3 -2.32 3 -3 3 C-3 3.66 -3 4.32 -3 5 C-3.66386719 5.25394531 -4.32773437 5.50789063 -5.01171875 5.76953125 C-10.61429509 7.94024954 -10.61429509 7.94024954 -15.875 10.8125 C-18 12 -18 12 -20.1328125 11.57421875 C-20.74898438 11.38472656 -21.36515625 11.19523437 -22 11 C-17.46701802 8.09204929 -12.88733238 5.31865616 -8.1875 2.6875 C-7.27355469 2.17574219 -6.35960937 1.66398437 -5.41796875 1.13671875 C-3 0 -3 0 0 0 Z " fill="#C50503" transform="translate(354,73)"/>
<path d="M0 0 C-0.66 0.66 -1.32 1.32 -2 2 C-2.99 2 -3.98 2 -5 2 C-5 2.66 -5 3.32 -5 4 C-9.29 4.99 -13.58 5.98 -18 7 C-18.33 6.34 -18.66 5.68 -19 5 C-13.5515635 1.98902193 -6.1920943 -2.06403143 0 0 Z " fill="#C10503" transform="translate(374,67)"/>
<path d="M0 0 C0.66 0 1.32 0 2 0 C1.67566492 5.35152885 -1.49704824 8.28280043 -5 12 C-6.98 11.34 -8.96 10.68 -11 10 C-11 9.34 -11 8.68 -11 8 C-10.29875 7.979375 -9.5975 7.95875 -8.875 7.9375 C-5.08941398 6.70306978 -3.69840034 4.59922156 -1.33203125 1.49609375 C-0.89246094 1.00238281 -0.45289063 0.50867188 0 0 Z " fill="#DD0907" transform="translate(293,118)"/>
<path d="M0 0 C2.12546959 0.81127079 4.25036195 1.62405398 6.375 2.4375 C8.15003906 3.11619141 8.15003906 3.11619141 9.9609375 3.80859375 C13 5 13 5 15 6 C15 6.66 15 7.32 15 8 C15.99 8.33 16.98 8.66 18 9 C12.78254934 8.47493172 8.77348889 7.2201441 4.0625 4.9375 C2.91910156 4.38964844 1.77570313 3.84179688 0.59765625 3.27734375 C-0.25957031 2.85582031 -1.11679687 2.43429687 -2 2 C-1.34 1.34 -0.68 0.68 0 0 Z " fill="#9E0100" transform="translate(452,545)"/>
<path d="M0 0 C0.33 1.32 0.66 2.64 1 4 C0.01 4.33 -0.98 4.66 -2 5 C-2.3449145 6.33038449 -2.67516582 7.66457061 -3 9 C-5.24502976 12.79332614 -7.27346394 15.60436967 -11 18 C-11.66 17.67 -12.32 17.34 -13 17 C-12.56429688 16.443125 -12.12859375 15.88625 -11.6796875 15.3125 C-7.72897914 10.25012045 -3.8326528 5.15232079 0 0 Z " fill="#A80000" transform="translate(439,349)"/>
<path d="M0 0 C0 0.66 0 1.32 0 2 C0.99 2.33 1.98 2.66 3 3 C0.4385681 3.3641989 -2.12358419 3.71662798 -4.6875 4.0625 C-5.7693457 4.2181543 -5.7693457 4.2181543 -6.87304688 4.37695312 C-10.84079957 4.9023633 -14.07885111 5.10596507 -18 4 C-12.50312124 1.03343051 -6.25589769 -0.4036063 0 0 Z " fill="#BF0705" transform="translate(133,63)"/>
<path d="M0 0 C-1 3 -1 3 -3.2578125 4.16796875 C-8.72262717 6.11117942 -13.19034172 7.51641407 -19 7 C-16.13807009 5.09204673 -13.72209925 4.07649476 -10.5 2.9375 C-9.5409375 2.59589844 -8.581875 2.25429687 -7.59375 1.90234375 C-2.12554113 0 -2.12554113 0 0 0 Z " fill="#B90402" transform="translate(115,67)"/>
<path d="M0 0 C1.9375 0.3125 1.9375 0.3125 4 1 C4.33 1.99 4.66 2.98 5 4 C6.3153341 4.70151152 7.65117592 5.36525925 9 6 C10.75 7.4375 10.75 7.4375 12 9 C12 9.99 12 10.98 12 12 C10.68 11.34 9.36 10.68 8 10 C8 9.34 8 8.68 8 8 C6.68 7.34 5.36 6.68 4 6 C4 5.34 4 4.68 4 4 C2.68 3.34 1.36 2.68 0 2 C0 1.34 0 0.68 0 0 Z " fill="#C40302" transform="translate(106,374)"/>
<path d="M0 0 C-2.12040742 1.03033882 -4.24647908 2.04902854 -6.375 3.0625 C-8.15003906 3.91521484 -8.15003906 3.91521484 -9.9609375 4.78515625 C-10.96382812 5.18605469 -11.96671875 5.58695313 -13 6 C-13.66 5.67 -14.32 5.34 -15 5 C-10.49364994 -0.03650889 -6.42755845 -3.66301718 0 0 Z " fill="#9A0100" transform="translate(553,546)"/>
<path d="M0 0 C3.44171912 1.23118408 5.12883556 3.08607713 7.25 6 C7.77078125 6.70125 8.2915625 7.4025 8.828125 8.125 C10 10 10 10 10 12 C8.25 11.875 8.25 11.875 6 11 C4.60699818 9.04109119 3.27754554 7.0360882 2 5 C0.70317626 3.63113049 -0.61823134 2.2830709 -2 1 C-1.34 0.67 -0.68 0.34 0 0 Z " fill="#C90402" transform="translate(513,242)"/>
<path d="M0 0 C-1.98 0.99 -1.98 0.99 -4 2 C-3.67 2.66 -3.34 3.32 -3 4 C-8.61 4 -14.22 4 -20 4 C-20 3.67 -20 3.34 -20 3 C-17.79344925 2.49219106 -15.58466395 1.99408635 -13.375 1.5 C-11.53035156 1.08234375 -11.53035156 1.08234375 -9.6484375 0.65625 C-6.32847772 0.05908379 -3.36091549 -0.12409534 0 0 Z " fill="#B10605" transform="translate(394,62)"/>
<path d="M0 0 C5.50366792 -0.32374517 9.43672206 -0.53286034 14 3 C13.67 3.99 13.34 4.98 13 6 C10.525 5.01 10.525 5.01 8 4 C8 3.34 8 2.68 8 2 C5.03 2 2.06 2 -1 2 C-0.67 1.34 -0.34 0.68 0 0 Z " fill="#DD0604" transform="translate(498,237)"/>
<path d="M0 0 C1.93884889 0.28256092 3.87605961 0.5763793 5.8125 0.875 C6.89144531 1.03742188 7.97039062 1.19984375 9.08203125 1.3671875 C12 2 12 2 15 4 C11.02840314 5.08056059 8.57446843 4.85815614 4.6875 3.5625 C3.36298828 3.13130859 3.36298828 3.13130859 2.01171875 2.69140625 C1.34785156 2.46324219 0.68398438 2.23507813 0 2 C0 1.34 0 0.68 0 0 Z " fill="#BC0402" transform="translate(442,64)"/>
<path d="M0 0 C10.55808656 -0.3690205 10.55808656 -0.3690205 15 2 C11.46145836 4.27477677 9.29052627 3.99082706 5.25 3.125 C4.26515625 2.92132813 3.2803125 2.71765625 2.265625 2.5078125 C1.14414063 2.25644531 1.14414063 2.25644531 0 2 C0 1.34 0 0.68 0 0 Z " fill="#CF0605" transform="translate(190,66)"/>
<path d="M0 0 C0 3 0 3 -2.1875 5.3125 C-3.115625 6.199375 -4.04375 7.08625 -5 8 C-6.71439073 9.9645991 -8.35359305 11.97727146 -10 14 C-10 10.04433859 -8.60390851 8.90085629 -6.125 5.875 C-5.40570313 4.98554688 -4.68640625 4.09609375 -3.9453125 3.1796875 C-2 1 -2 1 0 0 Z " fill="#A80202" transform="translate(475,303)"/>
<path d="M0 0 C-0.25390625 1.85546875 -0.25390625 1.85546875 -1 4 C-2.77734375 5.30078125 -2.77734375 5.30078125 -4.9375 6.3125 C-5.64777344 6.65925781 -6.35804688 7.00601563 -7.08984375 7.36328125 C-8.03537109 7.67845703 -8.03537109 7.67845703 -9 8 C-9.66 7.67 -10.32 7.34 -11 7 C-9.54634731 5.82750647 -8.08692581 4.66216184 -6.625 3.5 C-5.40683594 2.52546875 -5.40683594 2.52546875 -4.1640625 1.53125 C-2 0 -2 0 0 0 Z " fill="#C70504" transform="translate(332,85)"/>
<path d="M0 0 C0.33 0 0.66 0 1 0 C2.23180249 6.15901243 1.73030908 11.78675502 1 18 C-1 16 -1 16 -1.23046875 13.57421875 C-1.21628906 12.62160156 -1.20210937 11.66898438 -1.1875 10.6875 C-1.18105469 9.74261719 -1.17460938 8.79773438 -1.16796875 7.82421875 C-1.00747977 5.12576443 -0.59933915 2.63229753 0 0 Z " fill="#DE0101" transform="translate(561,224)"/>
<path d="M0 0 C4.83256305 0.41421969 6.82679218 2.46413986 10 6 C9.67 6.99 9.34 7.98 9 9 C8.01 8.34 7.02 7.68 6 7 C6 6.34 6 5.68 6 5 C4.68 4.34 3.36 3.68 2 3 C2 2.34 2 1.68 2 1 C1.34 0.67 0.68 0.34 0 0 Z " fill="#C30503" transform="translate(164,433)"/>
<path d="M0 0 C8.71428571 1.85714286 8.71428571 1.85714286 11 5 C7.59068103 6.13643966 6.99664544 5.86747764 3.8125 4.5625 C3.09707031 4.27503906 2.38164062 3.98757812 1.64453125 3.69140625 C1.10183594 3.46324219 0.55914062 3.23507813 0 3 C0 2.01 0 1.02 0 0 Z " fill="#C20402" transform="translate(214,72)"/>
<path d="M0 0 C-4.60966042 2.48212484 -8.72927515 4 -14 4 C-13.67 3.01 -13.34 2.02 -13 1 C-8.28425116 -0.57191628 -4.86052444 -1.51891389 0 0 Z " fill="#930000" transform="translate(535,553)"/>
<path d="M0 0 C0.33 0.99 0.66 1.98 1 3 C-4.61 2.67 -10.22 2.34 -16 2 C-16 1.67 -16 1.34 -16 1 C-10.59255982 0.22750855 -5.46137814 -0.09752461 0 0 Z " fill="#DD0A07" transform="translate(441,63)"/>
<path d="M0 0 C0 3.58912412 -0.66436554 4.10857029 -3 6.6875 C-3.556875 7.31011719 -4.11375 7.93273437 -4.6875 8.57421875 C-5.120625 9.04472656 -5.55375 9.51523438 -6 10 C-6.66 9.01 -7.32 8.02 -8 7 C-3.375 1.125 -3.375 1.125 0 0 Z " fill="#DF0805" transform="translate(42,117)"/>
<path d="M0 0 C4.06815373 1.84916079 7.0094833 3.66442368 10 7 C7 8 7 8 5.17578125 7.22265625 C3.45052083 6.1484375 1.72526042 5.07421875 0 4 C0 2.68 0 1.36 0 0 Z " fill="#C30504" transform="translate(491,83)"/>
<path d="M0 0 C-0.99 0.495 -0.99 0.495 -2 1 C-2 1.66 -2 2.32 -2 3 C-3.65 3.33 -5.3 3.66 -7 4 C-7.33 4.99 -7.66 5.98 -8 7 C-8.66 6.67 -9.32 6.34 -10 6 C-7.82304683 0.97626191 -5.41372848 -0.29263397 0 0 Z " fill="#D90805" transform="translate(84,82)"/>
<path d="M0 0 C2 1.375 2 1.375 4 3 C4 3.66 4 4.32 4 5 C4.66 5.33 5.32 5.66 6 6 C5.34 6.66 4.68 7.32 4 8 C2.35 6.35 0.7 4.7 -1 3 C-0.67 2.01 -0.34 1.02 0 0 Z " fill="#DC0805" transform="translate(90,356)"/>
<path d="M0 0 C0.99 0 1.98 0 3 0 C2.3125 2.375 2.3125 2.375 1 5 C-1.625 6.3125 -1.625 6.3125 -4 7 C-2.79618552 4.50638429 -1.54571278 2.31856917 0 0 Z " fill="#D90403" transform="translate(464,272)"/>
<path d="M0 0 C0.99 0 1.98 0 3 0 C3.38922918 1.28745036 3.76098036 2.58019597 4.125 3.875 C4.33382812 4.59429687 4.54265625 5.31359375 4.7578125 6.0546875 C4.83773437 6.69664062 4.91765625 7.33859375 5 8 C4.34 8.66 3.68 9.32 3 10 C2.49818809 8.52144705 1.99859924 7.04213942 1.5 5.5625 C1.2215625 4.73878906 0.943125 3.91507813 0.65625 3.06640625 C0 1 0 1 0 0 Z " fill="#D80302" transform="translate(556,173)"/>
<path d="M0 0 C1 4 1 4 0.00390625 5.703125 C-1.33072917 7.13541667 -2.66536458 8.56770833 -4 10 C-4.66 9.67 -5.32 9.34 -6 9 C-4.02 6.03 -2.04 3.06 0 0 Z " fill="#C50504" transform="translate(33,126)"/>
<path d="M0 0 C0.99 0.33 1.98 0.66 3 1 C2.01 1.495 2.01 1.495 1 2 C0.731875 2.66 0.46375 3.32 0.1875 4 C-1 6 -1 6 -3.625 6.75 C-4.800625 6.87375 -4.800625 6.87375 -6 7 C-4.02 4.69 -2.04 2.38 0 0 Z " fill="#C50705" transform="translate(45,111)"/>
<path d="M0 0 C0.99773437 0.02320312 1.99546875 0.04640625 3.0234375 0.0703125 C4.52777344 0.09738281 4.52777344 0.09738281 6.0625 0.125 C6.83335937 0.14820312 7.60421875 0.17140625 8.3984375 0.1953125 C8.3984375 0.5253125 8.3984375 0.8553125 8.3984375 1.1953125 C6.98465968 1.56084053 5.56723174 1.91226745 4.1484375 2.2578125 C3.35953125 2.45503906 2.570625 2.65226562 1.7578125 2.85546875 C-0.70551072 3.21028517 -2.25760382 2.96408794 -4.6015625 2.1953125 C-2.6015625 0.1953125 -2.6015625 0.1953125 0 0 Z " fill="#EC0A08" transform="translate(376.6015625,65.8046875)"/>
<path d="M0 0 C-0.66 1.32 -1.32 2.64 -2 4 C-3.98 4 -5.96 4 -8 4 C-8 3.34 -8 2.68 -8 2 C-5.09399739 0.74335022 -3.20395416 0 0 0 Z " fill="#C20303" transform="translate(539,549)"/>
<path d="M0 0 C-0.5625 1.9375 -0.5625 1.9375 -2 4 C-5.625 4.75 -5.625 4.75 -9 5 C-2.87096774 0 -2.87096774 0 0 0 Z " fill="#C00604" transform="translate(90,77)"/>
<path d="M0 0 C1.4370809 -0.05422947 2.87475462 -0.09289723 4.3125 -0.125 C5.11300781 -0.14820313 5.91351563 -0.17140625 6.73828125 -0.1953125 C9 0 9 0 12 2 C7.31034294 3.11658501 4.46236469 2.80619523 0 1 C0 0.67 0 0.34 0 0 Z " fill="#9D0000" transform="translate(277,541)"/>
<path d="M0 0 C3.68754757 0.49831724 5.60490662 1.10067643 8 4 C5 5 5 5 2.3125 3.6875 C1.549375 3.130625 0.78625 2.57375 0 2 C0 1.34 0 0.68 0 0 Z " fill="#C10301" transform="translate(225,77)"/>
<path d="M0 0 C2.31 0 4.62 0 7 0 C7.33 0.99 7.66 1.98 8 3 C2.25 3.125 2.25 3.125 0 2 C0 1.34 0 0.68 0 0 Z " fill="#C30403" transform="translate(176,62)"/>
<path d="M0 0 C1.65 1.65 3.3 3.3 5 5 C3.68 5.33 2.36 5.66 1 6 C0.34 4.35 -0.32 2.7 -1 1 C-0.67 0.67 -0.34 0.34 0 0 Z " fill="#DF0605" transform="translate(530,263)"/>
<path d="M0 0 C3.37503669 1.1858237 5.64722731 2.27573689 8 5 C5.69 4.67 3.38 4.34 1 4 C0.67 2.68 0.34 1.36 0 0 Z " fill="#BA0302" transform="translate(233,81)"/>
<path d="M0 0 C6.75 -0.125 6.75 -0.125 9 1 C9 1.66 9 2.32 9 3 C2.25 2.25 2.25 2.25 0 0 Z " fill="#910000" transform="translate(470,554)"/>
<path d="M0 0 C1.485 0.99 1.485 0.99 3 2 C3.1875 5.625 3.1875 5.625 3 9 C2.01 8.67 1.02 8.34 0 8 C0 5.36 0 2.72 0 0 Z " fill="#CC0605" transform="translate(394,462)"/>
<path d="M0 0 C3.65316671 1.24976756 4.78065836 1.67098753 7 5 C6.01 5.33 5.02 5.66 4 6 C4 5.34 4 4.68 4 4 C2.68 3.34 1.36 2.68 0 2 C0 1.34 0 0.68 0 0 Z " fill="#C60302" transform="translate(118,386)"/>
<path d="M0 0 C1.32 0.33 2.64 0.66 4 1 C3.34 1 2.68 1 2 1 C1.34 2.32 0.68 3.64 0 5 C-0.99 5 -1.98 5 -3 5 C-2.01 3.35 -1.02 1.7 0 0 Z " fill="#BC0302" transform="translate(413,341)"/>
</svg>
